<svg xmlns="http://www.w3.org/2000/svg" xmlns:xlink="http://www.w3.org/1999/xlink" viewBox="0 0 1000 1000"><defs><path id="a" d="M0 0h401v897H0z"/></defs><g fill="none" fill-rule="evenodd" transform="translate(100 100)"><path fill="#41B883" d="m326.506 466.602-.012-.204m148.01 0-.008.205M326 466l.04.657c1.7 26.948 11.233 49.238 28.596 66.869 26.32 26.728 68.103 27.864 93.505 0C465.03 514.998 473.984 492.49 475 466m325 0c0 215.5-162.89 431-399.502 431C163.885 897 0 681.398 0 466m0 0V0h326v466m149 0V0h326v466"/><mask id="b" fill="#fff"><use xlink:href="#a"/></mask><path fill="#35495E" d="m326.506 466.602-.012-.204m148.01 0-.008.205M326 466l.04.657c1.7 26.948 11.233 49.238 28.596 66.869 26.32 26.728 68.103 27.864 93.505 0C465.03 514.998 473.984 492.49 475 466m325 0c0 215.5-162.89 431-399.502 431C163.885 897 0 681.398 0 466m0 0V0h326v466m149 0V0h326v466" mask="url(#b)"/></g></svg>